<svg xmlns="http://www.w3.org/2000/svg" xmlns:xlink="http://www.w3.org/1999/xlink" width="1080" zoomAndPan="magnify" viewBox="0 0 810 809.999993" height="1080" preserveAspectRatio="xMidYMid meet" version="1.0"><defs><clipPath id="117161fef8"><path d="M 121.5 121.5 L 688.5 121.5 L 688.5 688.5 L 121.5 688.5 Z M 121.5 121.5 " clip-rule="nonzero"/></clipPath></defs><g clip-path="url(#117161fef8)"><path fill="#ffffff" d="M 524.402344 121.5 L 285.617188 121.5 C 194.976562 121.5 121.5 194.976562 121.5 285.617188 L 121.5 524.402344 C 121.5 615.039062 194.976562 688.519531 285.617188 688.519531 L 524.402344 688.519531 C 615.039062 688.519531 688.519531 615.039062 688.519531 524.402344 L 688.519531 285.617188 C 688.519531 194.976562 615.039062 121.5 524.402344 121.5 Z M 630.191406 524.398438 C 630.191406 582.734375 582.734375 630.191406 524.398438 630.191406 L 285.617188 630.191406 C 227.285156 630.191406 179.828125 582.734375 179.828125 524.398438 L 179.828125 285.617188 C 179.828125 227.285156 227.285156 179.828125 285.617188 179.828125 L 524.398438 179.828125 C 582.734375 179.828125 630.191406 227.285156 630.191406 285.617188 Z M 630.191406 524.398438 " fill-opacity="1" fill-rule="nonzero"/></g><path fill="#ffffff" d="M 365.839844 447.183594 C 365.839844 447.183594 341.246094 378.320312 321.570312 380.78125 C 301.898438 383.242188 245.332031 402.917969 265.003906 425.050781 C 284.679688 447.183594 321.570312 523.425781 321.570312 540.644531 C 321.570312 557.859375 375.1875 567.695312 388.960938 540.644531 C 402.734375 513.589844 476.515625 336.511719 530.621094 284.863281 C 584.730469 233.214844 503.570312 257.8125 496.191406 262.730469 C 488.8125 267.648438 422.40625 326.675781 365.839844 447.183594 Z M 365.839844 447.183594 " fill-opacity="1" fill-rule="nonzero"/></svg>