<svg xmlns="http://www.w3.org/2000/svg" xmlns:xlink="http://www.w3.org/1999/xlink" width="1080" zoomAndPan="magnify" viewBox="0 0 810 809.999993" height="1080" preserveAspectRatio="xMidYMid meet" version="1.0"><defs><clipPath id="74c01d3db0"><path d="M 191 100 L 739.023438 100 L 739.023438 608 L 191 608 Z M 191 100 " clip-rule="nonzero"/></clipPath><clipPath id="fcffb46009"><path d="M 70.773438 124 L 658 124 L 658 711 L 70.773438 711 Z M 70.773438 124 " clip-rule="nonzero"/></clipPath></defs><g clip-path="url(#74c01d3db0)"><path fill="#ffffff" d="M 723.015625 101.617188 C 686.003906 108.589844 432.777344 222.363281 267.117188 425.683594 C 157.496094 575.5 187.8125 588.199219 228.289062 604.445312 C 254.375 614.886719 266.308594 595.171875 281.308594 564.492188 C 362.101562 399.554688 470.671875 298.804688 615.8125 192.894531 C 686.488281 141.289062 738.132812 109.800781 738.980469 103.429688 C 739.382812 100.527344 735.3125 99.320312 723.015625 101.617188 Z M 723.015625 101.617188 " fill-opacity="1" fill-rule="evenodd"/></g><path fill="#ffffff" d="M 178.097656 254.617188 C 178.097656 254.617188 318.679688 366.777344 415.761719 501.515625 C 480.1875 596.058594 487.242188 614.96875 514.015625 590.214844 C 540.785156 565.460938 551.347656 527.28125 485.226562 452.453125 C 419.109375 377.664062 297.757812 278.890625 221.597656 251.273438 C 192.652344 242.925781 165.035156 241.234375 178.097656 254.617188 Z M 178.097656 254.617188 " fill-opacity="1" fill-rule="evenodd"/><g clip-path="url(#fcffb46009)"><path fill="#ffffff" d="M 195.3125 124.597656 L 532.601562 124.597656 C 546.148438 124.597656 559.167969 126.816406 571.425781 130.847656 C 555.378906 139.835938 539.574219 149.191406 524.011719 158.785156 C 516.472656 163.460938 508.933594 168.21875 501.433594 173.058594 L 195.3125 173.058594 C 174.425781 173.058594 155.398438 181.605469 141.570312 195.433594 C 127.78125 209.222656 119.195312 228.25 119.195312 249.136719 L 119.195312 586.425781 C 119.195312 607.347656 127.78125 626.378906 141.570312 640.167969 C 155.398438 653.996094 174.425781 662.542969 195.3125 662.542969 L 532.601562 662.542969 C 553.523438 662.542969 572.511719 653.996094 586.34375 640.167969 C 600.128906 626.378906 608.71875 607.347656 608.71875 586.425781 L 608.71875 249.136719 C 608.71875 247.402344 608.636719 245.667969 608.515625 243.976562 C 617.992188 236.839844 627.625 229.703125 637.464844 222.527344 C 642.140625 219.097656 646.855469 215.714844 651.574219 212.328125 C 655.203125 223.976562 657.136719 236.355469 657.136719 249.136719 L 657.136719 586.425781 C 657.136719 620.734375 643.148438 651.859375 620.570312 674.433594 C 598.035156 696.972656 566.871094 710.960938 532.601562 710.960938 L 195.3125 710.960938 C 161.042969 710.960938 129.917969 696.972656 107.339844 674.433594 C 84.761719 651.859375 70.773438 620.734375 70.773438 586.425781 L 70.773438 249.136719 C 70.773438 214.867188 84.761719 183.742188 107.339844 161.164062 C 129.917969 138.628906 161.042969 124.597656 195.3125 124.597656 Z M 195.3125 124.597656 " fill-opacity="1" fill-rule="nonzero"/></g></svg>